<svg width="22" height="22" viewBox="0 0 22 22" fill="none" xmlns="http://www.w3.org/2000/svg">
<path d="M4.98291 5.50067C4.98272 4.36104 5.3683 3.2495 6.08637 2.3197C6.80444 1.3899 7.81952 0.687761 8.99129 0.310349C10.1631 -0.0670623 11.4337 -0.10111 12.6274 0.212914C13.8212 0.526938 14.8792 1.17352 15.6552 2.06329H10.976V1.37581C9.78394 1.37581 8.64065 1.81039 7.7977 2.58396C6.95476 3.35752 6.48119 4.40669 6.48119 5.50067C6.48119 6.59465 6.95476 7.64382 7.7977 8.41738C8.64065 9.19094 9.78394 9.62552 10.976 9.62552V8.93805H15.6552C14.8792 9.82781 13.8212 10.4744 12.6274 10.7884C11.4337 11.1024 10.1631 11.0684 8.99129 10.691C7.81952 10.3136 6.80444 9.61144 6.08637 8.68164C5.3683 7.75184 4.98272 6.6403 4.98291 5.50067Z" fill="black"/>
<path d="M16.5347 7.56291H10.9761V6.18796H16.9242C16.8568 6.66919 16.725 7.1298 16.5347 7.56291Z" fill="black"/>
<path d="M16.9242 4.81291C16.8601 4.34099 16.7292 3.87876 16.5347 3.43796H10.9761V4.81291H16.9242Z" fill="black"/>
<path d="M0.488037 15.1252C0.488037 13.5949 1.84099 12.3753 3.49809 12.3753H18.4674C18.9922 12.3751 19.5078 12.5014 19.9627 12.7414C20.4176 12.9815 20.7958 13.327 21.0595 13.7434H10.976V13.7503H3.49809C2.65755 13.7503 1.98632 14.3649 1.98632 15.1252C1.98632 16.925 2.91825 18.2656 4.49295 19.1854C6.09611 20.1245 8.3765 20.625 10.976 20.625H17.7483C15.8934 21.5572 13.5141 22 10.976 22C8.19671 22 5.60767 21.4692 3.68687 20.3459C1.73611 19.2047 0.488037 17.4489 0.488037 15.1252Z" fill="black"/>
<path d="M10.9761 16.4934V15.1184H21.4641V15.1253C21.4641 15.6065 21.4101 16.0616 21.3083 16.4934H10.9761Z" fill="black"/>
<path d="M20.7808 17.8684C20.5017 18.3735 20.1444 18.839 19.72 19.2502H17.3483L17.3587 19.2434H10.9761V17.8684H20.7808Z" fill="black"/>
</svg>
