<svg width="26" height="20" viewBox="0 0 26 20" fill="none" xmlns="http://www.w3.org/2000/svg">
<path d="M9.67516 0.0948305C9.76069 0.139818 9.8353 0.199167 9.89471 0.269485C9.95413 0.339803 9.99719 0.419714 10.0214 0.504652C10.0457 0.58959 10.0506 0.677892 10.036 0.764513C10.0214 0.851135 9.9875 0.934378 9.93625 1.00949L6.07143 6.66678H20.0886L16.2223 1.00949C16.1188 0.857787 16.0882 0.676196 16.1372 0.504664C16.1861 0.333132 16.3107 0.185711 16.4834 0.0948305C16.6561 0.00395037 16.8628 -0.0229438 17.0581 0.0200641C17.2534 0.0630721 17.4213 0.172459 17.5247 0.324162L21.8586 6.66678H23.706C24.1086 6.66678 24.4947 6.80725 24.7794 7.0573C25.0641 7.30734 25.224 7.64648 25.224 8.0001V9.33342C25.224 9.68704 25.0641 10.0262 24.7794 10.2762C24.4947 10.5263 24.1086 10.6667 23.706 10.6667V16.6667C23.706 17.5507 23.3062 18.3986 22.5945 19.0237C21.8828 19.6488 20.9175 20 19.911 20H6.24903C5.24254 20 4.27726 19.6488 3.56556 19.0237C2.85386 18.3986 2.45403 17.5507 2.45403 16.6667V10.6667C2.05144 10.6667 1.66533 10.5263 1.38065 10.2762C1.09597 10.0262 0.936035 9.68704 0.936035 9.33342V8.0001C0.936035 7.64648 1.09597 7.30734 1.38065 7.0573C1.66533 6.80725 2.05144 6.66678 2.45403 6.66678H4.30144L8.63229 0.324162C8.68351 0.249035 8.75108 0.183506 8.83114 0.13132C8.9112 0.079134 9.00218 0.0413123 9.09888 0.0200158C9.19558 -0.00128065 9.29611 -0.00563469 9.39473 0.0072022C9.49335 0.0200391 9.58813 0.0498154 9.67364 0.0948305H9.67516ZM3.97203 10.6667V16.6667C3.97203 17.1971 4.21193 17.7058 4.63895 18.0809C5.06597 18.456 5.64514 18.6667 6.24903 18.6667H19.911C20.5149 18.6667 21.0941 18.456 21.5211 18.0809C21.9481 17.7058 22.188 17.1971 22.188 16.6667V10.6667H3.97203ZM2.45403 8.0001V9.33342H23.706V8.0001H2.45403ZM7.00803 12.0001C7.20933 12.0001 7.40239 12.0703 7.54473 12.1953C7.68707 12.3203 7.76703 12.4899 7.76703 12.6667V16.6667C7.76703 16.8435 7.68707 17.0131 7.54473 17.1381C7.40239 17.2631 7.20933 17.3334 7.00803 17.3334C6.80673 17.3334 6.61368 17.2631 6.47134 17.1381C6.329 17.0131 6.24903 16.8435 6.24903 16.6667V12.6667C6.24903 12.4899 6.329 12.3203 6.47134 12.1953C6.61368 12.0703 6.80673 12.0001 7.00803 12.0001ZM10.044 12.0001C10.2453 12.0001 10.4384 12.0703 10.5807 12.1953C10.7231 12.3203 10.803 12.4899 10.803 12.6667V16.6667C10.803 16.8435 10.7231 17.0131 10.5807 17.1381C10.4384 17.2631 10.2453 17.3334 10.044 17.3334C9.84273 17.3334 9.64968 17.2631 9.50734 17.1381C9.365 17.0131 9.28503 16.8435 9.28503 16.6667V12.6667C9.28503 12.4899 9.365 12.3203 9.50734 12.1953C9.64968 12.0703 9.84273 12.0001 10.044 12.0001ZM13.08 12.0001C13.2813 12.0001 13.4744 12.0703 13.6167 12.1953C13.7591 12.3203 13.839 12.4899 13.839 12.6667V16.6667C13.839 16.8435 13.7591 17.0131 13.6167 17.1381C13.4744 17.2631 13.2813 17.3334 13.08 17.3334C12.8787 17.3334 12.6857 17.2631 12.5433 17.1381C12.401 17.0131 12.321 16.8435 12.321 16.6667V12.6667C12.321 12.4899 12.401 12.3203 12.5433 12.1953C12.6857 12.0703 12.8787 12.0001 13.08 12.0001ZM16.116 12.0001C16.3173 12.0001 16.5104 12.0703 16.6527 12.1953C16.7951 12.3203 16.875 12.4899 16.875 12.6667V16.6667C16.875 16.8435 16.7951 17.0131 16.6527 17.1381C16.5104 17.2631 16.3173 17.3334 16.116 17.3334C15.9147 17.3334 15.7217 17.2631 15.5793 17.1381C15.437 17.0131 15.357 16.8435 15.357 16.6667V12.6667C15.357 12.4899 15.437 12.3203 15.5793 12.1953C15.7217 12.0703 15.9147 12.0001 16.116 12.0001ZM19.152 12.0001C19.3533 12.0001 19.5464 12.0703 19.6887 12.1953C19.8311 12.3203 19.911 12.4899 19.911 12.6667V16.6667C19.911 16.8435 19.8311 17.0131 19.6887 17.1381C19.5464 17.2631 19.3533 17.3334 19.152 17.3334C18.9507 17.3334 18.7577 17.2631 18.6153 17.1381C18.473 17.0131 18.393 16.8435 18.393 16.6667V12.6667C18.393 12.4899 18.473 12.3203 18.6153 12.1953C18.7577 12.0703 18.9507 12.0001 19.152 12.0001Z" fill="black"/>
</svg>
