<svg width="24" height="24" viewBox="0 0 24 24" fill="none" xmlns="http://www.w3.org/2000/svg">
<path fill-rule="evenodd" clip-rule="evenodd" d="M19.2801 9.44V19.98C19.2795 20.5431 18.8232 20.9994 18.2601 21H6.02012C5.45704 20.9994 5.00072 20.5431 5.00012 19.98V5.02C5.00072 4.45692 5.45704 4.0006 6.02012 4H13.8237L13.8373 8.42401C13.8404 8.98545 14.296 9.43915 14.8575 9.44H19.2801ZM14.5175 8.42145L14.5043 4.20199L18.9813 8.68108C19.0043 8.70631 19.0259 8.73268 19.0462 8.76009H14.8574C14.6703 8.75983 14.5184 8.60858 14.5175 8.42145ZM12.1403 14.1999C12.6932 14.1999 13.1603 13.577 13.1603 12.8399C13.1603 12.1028 12.6932 11.4799 12.1403 11.4799C11.5874 11.4799 11.1203 12.1028 11.1203 12.8399C11.1203 13.577 11.5874 14.1999 12.1403 14.1999ZM9.7846 16.9198C9.95513 15.7496 10.9578 14.8813 12.1404 14.8798C13.3229 14.8813 14.3256 15.7496 14.4961 16.9198H9.7846ZM13.2182 14.4052C14.4087 14.8513 15.1983 15.9884 15.2002 17.2597C15.2002 17.4475 15.048 17.5997 14.8602 17.5997H9.42019C9.23241 17.5997 9.08019 17.4475 9.08019 17.2597C9.08211 15.9884 9.87164 14.8513 11.0622 14.4052C10.6555 13.9865 10.4318 13.4234 10.4402 12.8397C10.3551 11.8097 11.1117 10.9018 12.1402 10.7997C13.1686 10.9018 13.9252 11.8097 13.8402 12.8397C13.8486 13.4234 13.6248 13.9865 13.2182 14.4052Z" fill="#333333"/>
</svg>
