<svg width="27" height="21" viewBox="0 0 27 21" fill="none" xmlns="http://www.w3.org/2000/svg">
<path fill-rule="evenodd" clip-rule="evenodd" d="M20.2004 21H17.9924C16.7729 21 15.7844 20.1046 15.7844 19V12H11.3684V19C11.3684 20.1046 10.3798 21 9.16037 21H6.95237C5.1232 21 3.64037 19.6569 3.64037 18V11C3.64037 10.4477 4.13464 10 4.74437 10C5.35409 10 5.84837 10.4477 5.84837 11V18C5.84837 18.5523 6.34264 19 6.95237 19H9.16037V12C9.16037 10.8955 10.1489 10 11.3684 10H15.7844C17.0038 10 17.9924 10.8955 17.9924 12V19H20.2004C20.8101 19 21.3044 18.5523 21.3044 18V11C21.3044 10.4477 21.7986 10 22.4084 10C23.0181 10 23.5124 10.4477 23.5124 11V18C23.5124 19.6569 22.0295 21 20.2004 21ZM26.6477 8.54002C26.9782 8.07855 26.8351 7.46198 26.3276 7.16002L15.9831 1.08002C14.5222 0.222675 12.6416 0.222675 11.1807 1.08002L0.836204 7.16002C0.324037 7.46102 0.178226 8.0811 0.510524 8.54502C0.842823 9.00894 1.5274 9.14102 2.03956 8.84002L12.384 2.76002C13.1158 2.32919 14.059 2.32919 14.7908 2.76002L25.1352 8.84002C25.6447 9.13934 26.3254 9.00977 26.6588 8.55002L26.6477 8.54002Z" fill="black"/>
</svg>
