<svg width="27" height="24" viewBox="0 0 27 24" fill="none" xmlns="http://www.w3.org/2000/svg">
<path fill-rule="evenodd" clip-rule="evenodd" d="M5.38958 16.7999C5.46671 16.7067 5.56672 16.6311 5.68169 16.579C5.79666 16.527 5.92344 16.4998 6.05198 16.4998H10.192C10.4116 16.4998 10.6222 16.5789 10.7775 16.7195C10.9327 16.8602 11.02 17.0509 11.02 17.2499C11.02 17.4488 10.9327 17.6395 10.7775 17.7802C10.6222 17.9209 10.4116 17.9999 10.192 17.9999H6.46598L2.73998 22.4999H24.268L20.542 17.9999H16.816C16.5964 17.9999 16.3858 17.9209 16.2305 17.7802C16.0752 17.6395 15.988 17.4488 15.988 17.2499C15.988 17.0509 16.0752 16.8602 16.2305 16.7195C16.3858 16.5789 16.5964 16.4998 16.816 16.4998H20.956C21.0845 16.4998 21.2113 16.527 21.3263 16.579C21.4412 16.6311 21.5413 16.7067 21.6184 16.7999L26.5864 22.7999C26.6786 22.9114 26.7348 23.0439 26.7486 23.1826C26.7624 23.3213 26.7333 23.4608 26.6646 23.5854C26.5958 23.7099 26.4901 23.8147 26.3593 23.8879C26.2285 23.9612 26.0778 24 25.924 24H1.08398C0.930212 24 0.779481 23.9612 0.648677 23.8879C0.517872 23.8147 0.412164 23.7099 0.343396 23.5854C0.274628 23.4608 0.245518 23.3213 0.259328 23.1826C0.273137 23.0439 0.32932 22.9114 0.421582 22.7999L5.38958 16.7999Z" fill="#D70039"/>
<path fill-rule="evenodd" clip-rule="evenodd" d="M13.504 1.49947C12.8516 1.49947 12.2055 1.61587 11.6028 1.84201C11.0001 2.06816 10.4524 2.39964 9.99107 2.81751C9.52975 3.23538 9.16381 3.73146 8.91414 4.27743C8.66448 4.82341 8.53598 5.40858 8.53598 5.99954C8.53598 6.5905 8.66448 7.17567 8.91414 7.72164C9.16381 8.26761 9.52975 8.7637 9.99107 9.18157C10.4524 9.59944 11.0001 9.93091 11.6028 10.1571C12.2055 10.3832 12.8516 10.4996 13.504 10.4996C14.8216 10.4996 16.0852 10.0255 17.0169 9.18157C17.9486 8.33764 18.472 7.19303 18.472 5.99954C18.472 4.80604 17.9486 3.66143 17.0169 2.81751C16.0852 1.97358 14.8216 1.49947 13.504 1.49947ZM6.87998 5.99954C6.88009 4.84486 7.24803 3.71474 7.93964 2.74477C8.63125 1.77481 9.61715 1.00622 10.779 0.531212C11.9409 0.0562071 13.2294 -0.105029 14.49 0.0668501C15.7505 0.238729 16.9296 0.736423 17.8856 1.50021C18.8416 2.264 19.534 3.26144 19.8797 4.37284C20.2254 5.48425 20.2098 6.6624 19.8346 7.76594C19.4594 8.86949 18.7407 9.85153 17.7647 10.5942C16.7886 11.337 15.5967 11.8088 14.332 11.9531V20.2498C14.332 20.4487 14.2447 20.6394 14.0895 20.7801C13.9342 20.9208 13.7236 20.9998 13.504 20.9998C13.2844 20.9998 13.0738 20.9208 12.9185 20.7801C12.7632 20.6394 12.676 20.4487 12.676 20.2498V11.9546C11.0746 11.7719 9.60192 11.0658 8.53467 9.96895C7.46743 8.87213 6.87902 7.46008 6.87998 5.99804V5.99954Z" fill="#D70039"/>
</svg>
